<?xml version="1.0" standalone="no"?>
<!DOCTYPE svg PUBLIC "-//W3C//DTD SVG 20010904//EN"
 "http://www.w3.org/TR/2001/REC-SVG-20010904/DTD/svg10.dtd">
<svg version="1.0" xmlns="http://www.w3.org/2000/svg"
 width="400.000000pt" height="400.000000pt" viewBox="0 0 400.000000 400.000000"
 preserveAspectRatio="xMidYMid meet">

<g transform="translate(0.000000,400.000000) scale(0.100000,-0.100000)"
fill="#000000" stroke="none">
<path d="M2078 2935 c-2 -3 -81 -5 -175 -6 -200 0 -235 -9 -269 -64 -15 -26
-21 -47 -17 -66 3 -14 0 -30 -6 -33 -6 -4 -11 -23 -11 -41 0 -65 -59 -398 -82
-462 -8 -23 -38 -32 -38 -12 0 6 -9 8 -20 4 -20 -6 -50 9 -50 25 0 14 32 21
45 10 9 -8 14 4 19 52 7 70 2 86 -13 37 -5 -19 -10 -26 -10 -15 -1 16 -7 18
-44 14 -48 -6 -92 18 -77 42 6 9 13 7 29 -9 25 -25 91 -30 91 -7 0 8 -6 17
-12 19 -10 4 -10 6 0 6 14 1 17 31 2 31 -5 0 -10 7 -10 15 0 8 -4 15 -9 15 -5
0 -11 14 -14 30 -6 26 -11 30 -37 30 -17 0 -38 -7 -47 -15 -14 -14 -17 -14
-34 1 -11 9 -19 23 -19 29 0 7 -16 16 -35 19 -19 4 -35 11 -35 17 0 5 -12 14
-26 19 -22 9 -25 15 -20 36 6 22 4 25 -9 20 -9 -3 -30 -6 -46 -6 -23 0 -29 -4
-29 -22 0 -18 -2 -20 -10 -8 -7 12 -12 12 -22 2 -10 -10 -10 -17 0 -32 10 -17
10 -20 -6 -20 -10 0 -23 5 -30 12 -9 9 -18 9 -37 0 -14 -6 -24 -15 -23 -19 5
-19 -14 -51 -37 -61 -20 -9 -25 -9 -25 3 0 8 -11 17 -25 21 -14 3 -25 11 -26
18 -1 6 -4 0 -8 -14 -8 -28 -3 -60 10 -60 5 0 9 5 9 10 0 17 19 11 30 -11 9
-17 8 -23 -7 -35 -17 -12 -16 -13 10 -14 17 0 27 -5 27 -15 0 -17 -9 -19 -29
-6 -10 6 -23 5 -35 -2 -12 -6 -24 -10 -28 -9 -5 1 -8 -3 -8 -10 0 -37 -32
-276 -39 -293 -16 -38 -102 -612 -122 -820 -14 -145 -17 -170 -19 -170 -1 0
-3 -7 -5 -15 -2 -8 -7 -26 -10 -40 -3 -14 -11 -78 -17 -143 -10 -107 -9 -120
6 -135 19 -19 17 -19 383 -30 133 -4 244 -10 248 -13 6 -7 -37 -322 -54 -393
-27 -111 24 -125 477 -127 235 -1 239 0 261 63 11 30 10 30 -12 15 -12 -8 -21
-23 -19 -32 3 -17 2 -17 -13 -1 -11 11 -26 14 -46 11 -21 -4 -31 -1 -36 11 -4
12 -14 14 -35 10 -16 -3 -106 -1 -201 4 -189 12 -203 13 -213 23 -4 3 -15 2
-26 -4 -10 -6 -31 -9 -46 -7 -21 2 -28 10 -35 41 -11 44 -1 60 18 33 10 -13
31 -20 67 -24 -21 12 -18 -5 -20 -2 -14 20
5 20 3 24 -9 20 -9 -4 -15 -1 -13 5 1 8 -13 11 -40 9 -27 -2 -43 2 -43 9 0 6
-4 8 -10 5 -5 -3 -10 0 -10 7 0 8 -3 9 -8 3 -10 -15 -42 -18 -42 -4 0 9 -3 9
-14 0 -8 -7 -16 -8 -18 -2 -1 5 -51 12 -110 15 -92 6 -108 4 -116 -10 -7 -12
-17 -15 -41 -9 -17 3 -31 11 -31 16 0 14 -84 11 -99 -3 -10 -9 -12 -9 -7 -1 5
9 -33 12 -157 11 -90 -1 -168 1 -174 5 -5 4 -12 4 -15 2z m729 -61 c-3 -3 -12
-4 -19 -1 -8 3 -5 6 6 6 11 1 17 -2 13 -5z m63 -14 c0 -5 -4 -10 -10 -10 -5 0
-10 5 -10 10 0 6 5 10 10 10 6 0 10 -4 10 -10z m83 -27 c-7 -2 -19 -2 -25 0
-7 3 -2 5 12 5 14 0 19 -2 13 -5z m87 -65 c0 -17 -3 -18 -14 -8 -8 6 -12 18
-9 26 7 19 23 7 23 -18z m-1890 -163 c0 -8 -4 -15 -10 -15 -5 0 -10 7 -10 15
0 8 5 15 10 15 6 0 10 -7 10 -15z m123 -212 c9 -3 17 -9 17 -14 0 -14 -26 -10
-40 6 -7 8 -21 15 -31 15 -22 0 -34 16 -17 23 7 3 22 -2 33 -10 11 -7 28 -16
38 -20z m184 -190 c-3 -10 -5 -4 -5 12 0 17 2 24 5 18 2 -7 2 -21 0 -30z
m-154 0 c-7 -2 -19 -2 -25 0 -7 3 -2 5 12 5 14 0 19 -2 13 -5z m195 -37 c3
-11 -1 -17 -9 -14 -7 2 -13 12 -15 22 -3 23 20 15 24 -8z m-34 -29 c4 -15 11
-25 16 -22 16 10 12 -22 -5 -38 -19 -19 -31 -67 -16 -67 13 0 15 -49 2 -68 -6
-10 -10 -4 -16 20 -4 18 -7 36 -6 41 0 4 -5 7 -13 7 -13 0 -26 20 -26 42 0 6
10 8 25 4 29 -7 30 -3 13 59 -11 39 -10 47 2 55 8 5 16 6 17 2 1 -4 4 -20 7
-35z m1961 -213 c-3 -19 -10 -34 -15 -34 -6 0 -10 -11 -10 -25 0 -14 -4 -25
-8 -25 -4 0 -14 -16 -21 -35 -7 -19 -17 -33 -22 -30 -5 4 -9 -1 -9 -10 0 -31
-25 -95 -37 -95 -7 0 -13 -7 -13 -17 0 -22 -48 -83 -66 -83 -7 0 -14 5 -14 10
0 10 7 19 50 67 11 12 22 34 26 49 4 14 13 28 20 31 8 3 14 13 14 22 0 9 5 22
11 28 12 12 42 87 61 153 5 19 15 41 22 49 9 12 12 11 14 -3 2 -10 1 -33 -3
-52z m-1980 -89 c-5 -39 -4 -55 4 -55 7 0 9 -5 5 -11 -5 -8 -1 -8 14 0 11 6
27 11 34 10 10 0 10 -2 -1 -6 -18 -7 -45 -36 -50 -54 -2 -8 -10 -52 -18 -99
-20 -115 -33 -124 -33 -22 0 44 -5 92 -11 106 -7 14 -8 33 -4 43 4 10 9 38 10
63 4 69 4 72 15 65 6 -4 8 -15 5 -26 -4 -11 -2 -19 4 -19 6 0 11 14 11 30 0
17 5 30 11 30 7 0 8 -18 4 -55z m1762 -281 c-3 -3 -12 -4 -19 -1 -8 3 -5 6 6
6 11 1 17 -2 13 -5z m-20 -38 c0 -8 -6 -12 -14 -9 -7 3 -13 -1 -13 -10 0 -8
-7 -17 -15 -21 -8 -3 -15 -15 -15 -26 0 -12 -7 -20 -17 -20 -10 0 -27 -10 -38
-22 -11 -13 -25 -24 -31 -25 -5 -1 -48 -20 -95 -42 -46 -22 -109 -45 -139 -51
-30 -5 -84 -17 -119 -25 -68 -15 -347 -21 -412 -10 -21 4 -60 1 -98 -9 -74
-19 -81 -19 -81 -5 0 5 17 18 38 27 30 14 83 18 267 24 228 7 340 17 403 36
66 21 303 145 313 164 6 10 20 23 32 28 31 12 34 12 34 -4z m-1992 -1234 c-6
-15 -8 -15 -15 3 -4 11 -3 29 4 40 10 19 11 19 14 -3 2 -13 0 -31 -3 -40z m99
-8 c22 -9 20 -34 -3 -34 -19 0 -35 23 -24 34 8 7 8 7 27 0z"/>
<path d="M2948 2903 c7 -3 16 -2 19 1 4 3 -2 6 -13 5 -11 0 -14 -3 -6 -6z"/>
<path d="M3095 2800 c3 -5 8 -10 11 -10 2 0 4 5 4 10 0 6 -5 10 -11 10 -5 0
-7 -4 -4 -10z"/>
<path d="M3245 2770 c3 -5 11 -10 16 -10 6 0 7 5 4 10 -3 6 -11 10 -16 10 -6
0 -7 -4 -4 -10z"/>
<path d="M3171 2724 c0 -11 3 -14 6 -6 3 7 2 16 -1 19 -3 4 -6 -2 -5 -13z"/>
<path d="M3301 2704 c0 -11 3 -14 6 -6 3 7 2 16 -1 19 -3 4 -6 -2 -5 -13z"/>
<path d="M3331 2678 c0 -9 -3 -22 -6 -30 -3 -8 7 -17 30 -24 19 -6 35 -7 35
-3 0 11 -40 32 -41 22 -1 -4 -5 6 -9 22 -4 17 -8 22 -9 13z"/>
<path d="M818 623 c7 -3 16 -2 19 1 4 3 -2 6 -13 5 -11 0 -14 -3 -6 -6z"/>
</g>
</svg>
